<?xml version="1.0" encoding="utf-8"?>
<!-- Generator: Adobe Illustrator 21.1.0, SVG Export Plug-In . SVG Version: 6.00 Build 0)  -->
<svg version="1.1" id="Layer_1" xmlns="http://www.w3.org/2000/svg" xmlns:xlink="http://www.w3.org/1999/xlink" x="0px" y="0px"
	 viewBox="0 0 100 100" style="enable-background:new 0 0 100 100;" xml:space="preserve">
<style type="text/css">
	.st0{fill:#FFFFFF;}
	.st1{fill:#002D73;}
</style>
<g id="distintivo_2_">
	<path class="st0" d="M50,0.6c-16.3,13.8-40.3,5-40.3,5v50c0,15.5,15,32.4,40.3,44c25.3-11.6,40.3-28.5,40.3-44v-50
		C90.3,5.6,66.3,14.5,50,0.6"/>
	<path class="st1" d="M89.9,55.6c0,3.3-0.7,6.7-2,10l-7.1-12.1c0,0,0-0.1,0-0.1V35.3l7.7-13h-7.7v-4.9l-0.1,0
		c-2.5,0.3-5,0.5-7.5,0.5c-5,0-9.7-0.6-14.1-1.9L51.2,2.1c5.9,4.4,13.3,6.7,22,6.7c8.1,0,14.9-2,16.7-2.6V55.6z M50,99.2
		c-18.9-8.7-32.3-20.6-37.5-32.7h11.2c1,1.5,2.1,3,3.3,4.6c5.6,6.9,13.5,13.1,22.9,17.9l0,0l0,0c9.4-4.9,17.3-11.1,22.9-17.9
		c1.2-1.5,2.3-3,3.3-4.6h11.2C82.3,78.6,68.9,90.5,50,99.2 M10.1,55.6V6.1c1.8,0.6,8.6,2.6,16.7,2.6c8.7,0,16-2.2,22-6.7L40.9,16
		c-4.4,1.3-9.1,1.9-14.1,1.9c-2.4,0-4.9-0.2-7.4-0.5l-0.1,0v4.9h-7.7l7.7,13v18.1c0,0,0,0.1,0,0.1l-7.1,12.1
		C10.8,62.2,10.1,58.9,10.1,55.6 M80.6,22.3h-1.1v-3.4l-0.4,0c-2,0.2-4,0.3-5.9,0.3c-4.6,0-9-0.5-13.2-1.6l-0.8-1.3
		c4.3,1.2,9,1.9,13.9,1.9c2.4,0,4.9-0.1,7.4-0.4V22.3z M80.6,34.2L79.5,36l-0.7,1.2l-2.1,3.5c-0.1-0.6-0.2-1.1-0.3-1.6l8.9-15H67.8
		c-0.4-0.4-0.9-0.7-1.3-1.1h12.3h0.7h1.1h0.2h6.4l-6.4,10.8L80.6,34.2z M79.5,51.2V37.5l1.1-1.8v17.4L79.5,51.2z M76.8,42l1.9-3.3
		V50l-1.9-3.3c0.1-0.8,0.1-1.6,0.1-2.4C76.9,43.5,76.9,42.7,76.8,42 M75.2,65.8h-0.9h-8.1c0.5-0.3,0.9-0.7,1.3-1.1h17.8l-8.9-15.2
		c0.1-0.5,0.2-1.1,0.3-1.6l2.1,3.5l0.7,1.2l1,1.8l0.2,0.3l6.5,11H76.7h-0.3H75.2z M25.3,66.5c0.8,1.2,1.7,2.5,2.8,3.7
		c5.2,6.3,12.4,12.1,21,16.8l0.9,1.7l0.9-1.7c8.6-4.7,15.9-10.5,21-16.8c1-1.2,1.9-2.5,2.8-3.7H76C71.3,74,62.7,82.2,50,88.8
		C37.3,82.2,28.7,74,24,66.5H25.3z M19.5,54.4l1-1.8l0.7-1.2l2.1-3.5c0.1,0.6,0.2,1.1,0.3,1.6l-8.8,15l-0.1,0.2h17.8
		c0.4,0.4,0.9,0.7,1.3,1.1h-8.1h-0.9h-1.3h-0.3H12.8l6.5-11L19.5,54.4z M20.5,37.5v13.8l-1.1,1.8V35.6L20.5,37.5z M23.2,46.7
		L21.2,50V38.7l1.9,3.3c-0.1,0.8-0.1,1.6-0.1,2.4C23.1,45.1,23.1,45.9,23.2,46.7 M20.5,23h0.7h12.3c-0.4,0.3-0.9,0.7-1.3,1.1H14.7
		l8.9,15c-0.1,0.5-0.2,1.1-0.3,1.6l-2.1-3.5L20.5,36l-1.1-1.8l-0.2-0.4L12.8,23h6.4h0.2H20.5z M26.8,19.2c-1.9,0-3.9-0.1-5.9-0.3
		l-0.4,0v3.4h-1.1v-4.6c2.5,0.3,5,0.4,7.4,0.4c4.9,0,9.6-0.6,13.9-1.9L40,17.6C35.8,18.7,31.4,19.2,26.8,19.2 M38.7,19.9
		c-1.5,0.7-2.8,1.5-4.1,2.4H21.2v-2.6c1.9,0.2,3.7,0.2,5.5,0.2c4.4,0,8.7-0.5,12.7-1.5L38.7,19.9z M15.3,24.3H32
		c-2.1,1.9-3.9,4.1-5.3,6.6L15.3,24.3z M26.6,31.1c-1.4,2.4-2.3,5-2.9,7.7l-8.5-14.3L26.6,31.1z M15.2,64.3l8.5-14.4
		c0.6,2.8,1.6,5.4,3,7.8L15.2,64.3z M26.8,57.9c1.5,2.5,3.3,4.7,5.4,6.6H15.3L26.8,57.9z M61.5,68.7c1.3-0.6,2.5-1.3,3.7-2.1h8.7
		c-0.7,1.1-1.6,2.2-2.4,3.3c-4.9,6-11.7,11.5-19.8,16.1L61.5,68.7z M50.1,84.5V71.2c2.9,0,5.7-0.5,8.4-1.4L50.1,84.5z M41.5,69.9
		c2.6,0.9,5.4,1.4,8.4,1.4v13.2L41.5,69.9z M48.4,85.9c-8.1-4.5-14.9-10-19.8-16.1c-0.9-1.1-1.7-2.2-2.4-3.3h8.7
		c1.2,0.8,2.4,1.5,3.7,2.1L48.4,85.9z M39.6,69.2c0.5,0.2,1,0.4,1.6,0.6L50,85.1l8.8-15.3c0.5-0.2,1.1-0.4,1.6-0.6l-9.9,17.4
		L50,87.3l-0.4-0.7L39.6,69.2z M84.7,64.5H67.8c2.1-1.9,4-4.1,5.4-6.6L84.7,64.5z M73.3,57.7c1.4-2.4,2.4-5,3-7.8l8.5,14.4
		L73.3,57.7z M84.8,24.5l-8.5,14.3c-0.6-2.8-1.6-5.4-2.9-7.7L84.8,24.5z M73.3,30.9c-1.4-2.5-3.2-4.7-5.3-6.6h16.7L73.3,30.9z
		 M60.5,18.4c4,1,8.2,1.5,12.7,1.5c1.8,0,3.7-0.1,5.6-0.2v2.6H65.5c-1.3-0.9-2.7-1.7-4.1-2.4L60.5,18.4z M50.1,17.4V4.2l8.3,14.6
		C55.8,17.9,53,17.4,50.1,17.4 M41.6,18.7l8.3-14.6v13.2C47,17.4,44.2,17.9,41.6,18.7 M50,17.8c3,0,5.9,0.5,8.6,1.4
		c0.1,0,0.2,0.1,0.3,0.1c0.5,0.2,1.1,0.4,1.6,0.6c0.4,0.2,0.8,0.3,1.1,0.5c1.1,0.5,2.2,1.2,3.2,1.8c0.3,0.2,0.7,0.5,1,0.7
		c0.5,0.3,0.9,0.7,1.3,1.1c0.1,0.1,0.2,0.1,0.3,0.2c4.4,3.8,7.5,9,8.6,14.9c0,0.1,0,0.2,0.1,0.3c0.1,0.6,0.2,1.1,0.2,1.7
		c0,0.4,0.1,0.8,0.1,1.2c0,0.6,0.1,1.2,0.1,1.8c0,0.6,0,1.2-0.1,1.8c0,0.4-0.1,0.8-0.1,1.2c-0.1,0.6-0.1,1.1-0.2,1.7
		c0,0.1,0,0.2-0.1,0.3c-1.2,6-4.4,11.3-8.8,15.1c-0.1,0.1-0.2,0.1-0.3,0.2c-0.4,0.4-0.9,0.7-1.4,1.1c-0.3,0.2-0.7,0.5-1,0.7
		c-0.9,0.6-1.8,1.1-2.8,1.6c-0.4,0.2-0.8,0.4-1.1,0.5c-0.5,0.2-1.1,0.4-1.6,0.6c-0.1,0-0.2,0.1-0.3,0.1c-2.7,1-5.7,1.5-8.7,1.5
		c-3.1,0-6-0.5-8.7-1.5c-0.1,0-0.2-0.1-0.3-0.1c-0.5-0.2-1.1-0.4-1.6-0.6c-0.4-0.2-0.8-0.3-1.1-0.5c-1-0.5-1.9-1-2.8-1.6
		c-0.4-0.2-0.7-0.5-1-0.7c-0.5-0.3-0.9-0.7-1.4-1.1c-0.1-0.1-0.2-0.1-0.3-0.2c-4.5-3.8-7.7-9.1-8.8-15.1c0-0.1,0-0.2-0.1-0.3
		c-0.1-0.6-0.2-1.1-0.3-1.7c0-0.4-0.1-0.8-0.1-1.2c0-0.6-0.1-1.2-0.1-1.8c0-0.6,0-1.2,0.1-1.8c0-0.4,0.1-0.8,0.1-1.2
		c0.1-0.6,0.1-1.1,0.2-1.7c0-0.1,0-0.2,0.1-0.3c1.1-5.9,4.3-11.1,8.6-14.9c0.1-0.1,0.2-0.1,0.3-0.2c0.4-0.4,0.9-0.7,1.3-1.1
		c0.3-0.2,0.7-0.5,1-0.7c1-0.7,2.1-1.3,3.2-1.8c0.4-0.2,0.7-0.4,1.1-0.5c0.5-0.2,1-0.4,1.6-0.6c0.1,0,0.2-0.1,0.3-0.1
		C44.1,18.3,47,17.8,50,17.8 M50,1.4l8.1,14.3l0.2,0.3l0.8,1.4l0.5,0.9l0.7,1.2c-0.5-0.2-1-0.4-1.6-0.6L50,3.5l-8.7,15.3
		c-0.5,0.2-1.1,0.4-1.6,0.6l0.7-1.2l0.5-0.9l0.8-1.4l0.2-0.3L50,1.4z M90.6,5.1l-0.5,0.2C90.1,5.3,82.5,8,73.2,8
		C64,8,56.3,5.5,50.3,0.4L50-0.1l-0.3,0.5C43.7,5.5,36,8,26.8,8C17.5,8,9.9,5.3,9.9,5.3L9.4,5.1v50.5c0,3.5,0.8,7.2,2.3,10.8
		l-0.1,0.2h0.2c1.8,4.3,4.6,8.6,8.4,12.8c7.1,7.8,17.4,15,29.7,20.6L50,100l0.2-0.1c12.4-5.7,22.6-12.8,29.7-20.6
		c3.8-4.2,6.6-8.5,8.4-12.8h0.2l-0.1-0.2c1.5-3.6,2.3-7.3,2.3-10.8V5.1z"/>
	<path class="st1" d="M50,63c-10.3,0-18.7-8.4-18.7-18.7c0-4.6,1.7-8.8,4.4-12c1.1,11.7,4.2,18.8,6.9,22.9c3.6,5.6,7.3,7,7.4,7l0,0
		l0,0c0,0,3.7-1.4,7.4-7c2.7-4.1,5.8-11.2,6.9-22.9c2.7,3.3,4.4,7.5,4.4,12C68.7,54.6,60.3,63,50,63 M35.5,22.8h29
		c0,3.3-0.1,6.2-0.4,9c0,0.1,0,0.2,0,0.3c-1.1,11.7-4.2,18.9-6.9,23c-3.4,5.2-6.8,6.8-7.2,6.9c-0.4-0.2-3.8-1.7-7.2-6.9
		c-2.7-4.1-5.8-11.2-6.9-23c0-0.1,0-0.2,0-0.3C35.6,29,35.5,26,35.5,22.8 M64.3,32c0.3-2.8,0.4-5.9,0.4-9.3v-0.1H35.3v0.1
		c0,3.4,0.1,6.5,0.4,9.3c-2.9,3.3-4.6,7.6-4.6,12.3c0,10.4,8.5,18.9,18.9,18.9c10.4,0,18.9-8.5,18.9-18.9
		C68.9,39.6,67.2,35.3,64.3,32"/>
	<path class="st1" d="M42.2,30.3c0.6,10.8,1.5,18.2,7.8,22.2c6.4-3.9,7.2-11,7.8-22.2H42.2z M50,52.7L50,52.7
		c-6.6-4.1-7.4-11.6-8.1-22.5l0-0.1h16.1l0,0.1C57.4,41.6,56.6,48.7,50,52.7L50,52.7z"/>
	<path class="st1" d="M40.6,29.6h-3.5V29h0.1h3.3h0.1V29.6z M38.4,28.8c0-0.9,0.3-1.1,0.4-1.2c0.3,0.2,0.4,0.9,0.4,1.2H38.4z
		 M37.6,26.7H40l0.2,2.1h-0.8c0-0.3-0.1-1.2-0.6-1.4l0,0l0,0c0,0-0.6,0.2-0.6,1.4h-0.8L37.6,26.7z M37.4,26.5v-0.4h0.8h0.2h0.9h0.2
		h0.8v0.4h-0.1H37.4L37.4,26.5z M37.6,25.3h0.6v0.6h-0.6V25.3z M38.4,25.1V25h0.9v0.9h-0.9V25.1z M39.5,25.3H40v0.6h-0.6V25.3z
		 M40.4,28.8l-0.2-2.1h0.2v-0.8h-0.2v-0.7v-0.1v-0.2h-0.8v-0.2h0v-0.2h-1.3v0.2v0.2h-0.8v0.2v0.1v0.7h-0.2v0.8h0.2l-0.2,2.1h-0.3v1
		h3.9v-1H40.4z"/>
	<path class="st1" d="M51.7,29.6h-3.5V29h0.1h3.3h0.1V29.6z M49.6,28.8c0-0.9,0.3-1.1,0.4-1.2c0.3,0.2,0.4,0.9,0.4,1.2H49.6z
		 M48.8,26.7h2.3l0.2,2.1h-0.8c0-0.3-0.1-1.2-0.6-1.4l0,0l0,0c0,0-0.6,0.2-0.6,1.4h-0.8L48.8,26.7z M48.6,26.5v-0.4h0.8h0.2h0.9h0.2
		h0.8v0.4h-0.1H48.6L48.6,26.5z M48.8,25.3h0.6v0.6h-0.6V25.3z M49.6,25.1V25h0.9v0.9h-0.9V25.1z M50.6,25.3h0.6v0.6h-0.6V25.3z
		 M51.6,28.8l-0.2-2.1h0.2v-0.8h-0.2v-0.7v-0.1v-0.2h-0.8v-0.2v-0.2h-1.3v0.2v0.2h-0.8v0.2v0.1v0.7h-0.2v0.8h0.2l-0.2,2.1H48v1H52
		v-1H51.6z"/>
	<path class="st1" d="M62.9,29.6h-3.5V29h0.1h3.3h0.1V29.6z M60.8,28.8c0-0.9,0.3-1.1,0.4-1.2c0.3,0.2,0.4,0.9,0.4,1.2H60.8z
		 M60,26.7h2.3l0.2,2.1h-0.8c0-0.3-0.1-1.2-0.6-1.4l0,0l0,0c0,0-0.6,0.2-0.6,1.4h-0.8L60,26.7z M59.8,26.5v-0.4h0.8h0.2h0.9h0.2h0.8
		v0.4h-0.1H59.8L59.8,26.5z M60,25.3h0.6v0.6H60V25.3z M60.8,25.1V25h0.9v0.9h-0.9V25.1z M61.8,25.3h0.6v0.6h-0.6V25.3z M62.8,28.8
		l-0.2-2.1h0.3v-0.8h-0.2v-0.7v-0.1v-0.2h-0.8v-0.2h0v-0.2h-1.3v0.2v0.2h-0.8v0.2v0.1v0.7h-0.2v0.8h0.2l-0.2,2.1h-0.3v1h3.9v-1H62.8
		z"/>
	<path class="st1" d="M61.3,42.6l-3.4-0.9l0.1-0.5l0.1,0l3.2,0.9l0.1,0L61.3,42.6z M59.4,41.3c0.3-0.8,0.6-1,0.7-1.1
		c0.2,0.3,0.1,0.9,0.1,1.3L59.4,41.3z M59.2,39.1l2.2,0.6l-0.3,2l-0.8-0.2c0.1-0.3,0.3-1.1-0.1-1.5l0,0l0,0c0,0-0.6,0.1-0.9,1.2
		L58.5,41L59.2,39.1z M59.1,38.8l0.1-0.4l0.7,0.2l0.2,0.1l0.8,0.2l0.2,0.1l0.7,0.2l-0.1,0.4l-0.1,0L59.1,38.8L59.1,38.8z M59.6,37.7
		l0.5,0.1L60,38.4l-0.5-0.1L59.6,37.7z M60.4,37.7l0-0.1l0.8,0.2L61,38.7l-0.8-0.2L60.4,37.7z M61.4,38.2l0.5,0.1l-0.2,0.6l-0.5-0.1
		L61.4,38.2z M61.4,41.8l0.3-2l0.2,0.1l0.2-0.8L62,39l0.2-0.7l0-0.1l0-0.2l-0.7-0.2l0-0.1l0.1-0.2l-1.2-0.3l-0.1,0.2l0,0.1l-0.7-0.2
		l0,0.2l0,0.1l-0.2,0.7L59,38.2L58.8,39L59,39L58.2,41l-0.3-0.1l-0.3,1l3.8,1.1l0.3-1L61.4,41.8z"/>
	<path class="st1" d="M38.6,42.1L38.6,42.1l3.3-0.9l0.1,0l0.1,0.5l-3.4,0.9L38.6,42.1z M39.8,41.5c-0.1-0.3-0.2-1,0.1-1.3
		c0.1,0,0.5,0.2,0.7,1.1L39.8,41.5z M41.6,41l-0.8,0.2C40.4,40,39.9,40,39.8,40l0,0l0,0c-0.4,0.4-0.2,1.2-0.1,1.5l-0.8,0.2l-0.3-2
		l2.2-0.6L41.6,41z M40.9,38.8l-2.6,0.7l-0.1,0l-0.1-0.4l0.7-0.2l0.2-0.1l0.8-0.2l0.2-0.1l0.7-0.2L40.9,38.8L40.9,38.8z M40.6,38.3
		L40,38.4l-0.2-0.6l0.5-0.1L40.6,38.3z M39.8,38.5L39,38.7l-0.2-0.9l0.8-0.2l0,0.1L39.8,38.5z M38.8,38.8l-0.5,0.1l-0.2-0.6l0.5-0.1
		L38.8,38.8z M38.3,41.9l0.3,1l3.8-1.1l-0.3-1L41.8,41L41,39l0.2-0.1L41,38.2l-0.2,0.1l-0.2-0.7l0-0.1l0-0.2l-0.7,0.2l0-0.1
		l-0.1-0.2l-1.2,0.3l0.1,0.2h0l0,0.1L37.8,38l0,0.2l0,0.1l0.2,0.7L37.8,39l0.2,0.8l0.2-0.1l0.3,2L38.3,41.9z"/>
	<path class="st1" d="M42.7,52.6L42.7,52.6l3-1.6l0.1,0l0.3,0.5L43,53.1L42.7,52.6z M43.8,51.7c-0.2-0.3-0.4-0.9-0.2-1.2
		c0.1,0,0.5,0.1,0.9,0.9L43.8,51.7z M45.4,50.9l-0.7,0.4c-0.6-1.1-1.2-1-1.2-1l0,0l0,0c-0.3,0.5,0.1,1.3,0.2,1.5l-0.7,0.4l-0.8-1.9
		l2-1.1L45.4,50.9z M44.3,48.9l-2.4,1.3l-0.1,0l-0.2-0.4l0.7-0.4l0.2-0.1l0.8-0.4l0.2-0.1l0.7-0.4L44.3,48.9L44.3,48.9z M43.8,48.4
		l-0.5,0.3l-0.3-0.5l0.5-0.3L43.8,48.4z M43.2,48.8l-0.8,0.4L42,48.4l0.8-0.4l0.1,0.1L43.2,48.8z M42.2,49.3l-0.5,0.3L41.4,49
		l0.5-0.3L42.2,49.3z M42.4,52.5l0.5,0.9l3.5-1.9l-0.5-0.9l-0.3,0.2l-1.2-1.7l0.2-0.1l-0.4-0.7L44,48.3l-0.3-0.6l-0.1-0.1l-0.1-0.2
		l-0.7,0.4l-0.1-0.1l-0.1-0.2l-1.1,0.6l0.1,0.2h0l0.1,0.1l-0.7,0.4l0.1,0.2l0.1,0.1l0.3,0.6l-0.2,0.1l0.4,0.7l0.2-0.1l0.8,1.9
		L42.4,52.5z"/>
	<path class="st1" d="M57,53.1L54,51.4l0.3-0.5l0.1,0l2.9,1.6l0.1,0L57,53.1z M55.5,51.3c0.4-0.7,0.8-0.9,0.9-0.9
		c0.2,0.4-0.1,1-0.2,1.2L55.5,51.3z M55.8,49.2l2,1.1l-0.8,1.9l-0.7-0.4c0.1-0.3,0.5-1,0.2-1.5l0,0l0,0c0,0-0.6-0.1-1.2,1l-0.7-0.4
		L55.8,49.2z M55.7,48.9l0.2-0.4l0.7,0.4l0.2,0.1l0.8,0.4l0.2,0.1l0.7,0.4l-0.2,0.4l-0.1,0L55.7,48.9L55.7,48.9z M56.5,47.9l0.5,0.3
		l-0.3,0.5l-0.5-0.3L56.5,47.9z M57.3,48.1L57.3,48.1l0.8,0.3l-0.4,0.8l-0.8-0.4L57.3,48.1z M58.1,48.8l0.5,0.3l-0.3,0.5l-0.5-0.3
		L58.1,48.8z M57.3,52.3l0.8-1.9l0.2,0.1l0.4-0.7l-0.2-0.1l0.3-0.6l0.1-0.1l0.1-0.2l-0.7-0.4l0.1-0.1l0.1-0.2l-1.1-0.6l-0.1,0.2
		l-0.1,0.1l-0.7-0.4l-0.1,0.2l-0.1,0.1L56,48.3l-0.2-0.1L55.4,49l0.2,0.1l-1.2,1.7l-0.3-0.2l-0.5,0.9l3.5,1.9l0.5-0.9L57.3,52.3z"/>
	<path class="st1" d="M30,33.7c-0.1,0.2-0.1,0.4-0.1,0.5c0,0.2,0.2,0.3,0.3,0.4c0.1,0.1,0.2,0.1,0.3,0.1c0.2,0,0.5-0.1,0.6-0.4
		l0.5-0.8l-1.2-0.6L30,33.7z M30.6,35.3c-0.2,0-0.4-0.1-0.6-0.2c-0.6-0.3-0.8-1-0.5-1.7l0.5-0.9l-1.3-0.7l0.3-0.5l3.5,1.9l-0.8,1.4
		C31.4,35.1,31,35.3,30.6,35.3"/>
	<path class="st1" d="M28.2,35.8c-0.6,0-1.1,0.3-1.3,0.9c-0.1,0.4-0.1,0.7,0.1,1.1c0.2,0.3,0.5,0.6,0.9,0.7c0.2,0.1,0.4,0.1,0.6,0.1
		c0.6,0,1.1-0.3,1.3-0.9c0.1-0.4,0.1-0.7-0.1-1.1c-0.2-0.3-0.5-0.5-0.9-0.7C28.6,35.9,28.4,35.8,28.2,35.8 M28.5,39.2
		c-0.2,0-0.5,0-0.7-0.1c-0.5-0.2-1-0.5-1.2-1c-0.2-0.5-0.3-1-0.1-1.5c0.3-0.8,1-1.3,1.8-1.3c0.2,0,0.5,0,0.7,0.1
		c1.1,0.4,1.7,1.4,1.3,2.5C30.1,38.7,29.4,39.2,28.5,39.2"/>
	<polygon class="st1" points="25.4,42 25.7,39.6 29.6,40.2 29.5,40.8 26.2,40.3 25.9,42.1 	"/>
	<path class="st1" d="M26.2,48.2c-0.6-0.3-0.9-0.8-0.9-1.4c-0.1-1.2,0.7-2.1,1.9-2.2c0.1,0,0.1,0,0.2,0c1.1,0,1.9,0.8,2,1.9
		c0,0.6-0.2,1.2-0.7,1.6l-0.1,0l-0.3-0.5l0,0c0.3-0.2,0.5-0.6,0.4-1c-0.1-0.8-0.7-1.3-1.5-1.3c0,0-0.1,0-0.1,0c-0.4,0-0.8,0.2-1,0.5
		c-0.2,0.3-0.4,0.6-0.3,1c0,0.4,0.3,0.8,0.6,1l0,0L26.2,48.2L26.2,48.2z"/>
	<rect x="25.8" y="48.8" transform="matrix(0.978 -0.2088 0.2088 0.978 -9.6363 6.8807)" class="st1" width="4" height="0.6"/>
	<path class="st1" d="M28.2,52.7l1.5-1.3l-2-0.1L28.2,52.7z M27.1,53.6l0.7-0.6l-0.6-1.7l-0.9,0L26,50.6l4.3,0.2l0.2,0.6l-3.2,2.8
		L27.1,53.6z"/>
	<path class="st1" d="M30,57.8c0.3,0.4,0.7,0.6,1.1,0.6c0.3,0,0.6-0.1,0.9-0.3c0.3-0.2,0.6-0.5,0.6-0.9c0.1-0.4,0-0.7-0.3-1.1
		l-0.4-0.6l-2.4,1.6L30,57.8z M31.1,59c-0.6,0-1.2-0.3-1.6-0.9L28.7,57l3.3-2.2l0.8,1.1c0.7,1,0.5,2.1-0.5,2.8
		C31.9,58.9,31.5,59,31.1,59"/>
	<polygon class="st1" points="31.5,60.7 34.3,58 36.2,59.8 35.8,60.2 34.3,58.8 33.5,59.5 34.9,61 34.5,61.4 33.2,59.9 32.3,60.8 
		33.7,62.2 33.3,62.6 	"/>
	<path class="st1" d="M37.9,65.7c-0.3,0-0.6-0.1-0.9-0.3c-0.5-0.3-0.9-0.8-1-1.3l0-0.1l0.6-0.2l0,0.1c0,0.2,0.2,0.7,0.7,1.1
		c0.2,0.1,0.4,0.2,0.6,0.2c0.3,0,0.4-0.2,0.5-0.3c0.2-0.3-0.1-0.7-0.5-1.1c-0.4-0.5-0.9-1-0.5-1.7c0.2-0.3,0.5-0.5,0.9-0.5
		c0.3,0,0.6,0.1,0.9,0.3c0.5,0.3,0.8,0.7,0.9,1.2l0,0.1l-0.5,0.2l0-0.1c-0.1-0.5-0.4-0.8-0.7-0.9c-0.2-0.1-0.3-0.1-0.5-0.1
		c-0.2,0-0.3,0.1-0.4,0.2c-0.2,0.3,0.1,0.6,0.4,0.9c0.4,0.5,1,1.1,0.5,1.8C38.6,65.5,38.3,65.7,37.9,65.7"/>
	<polygon class="st1" points="39.3,66.6 40.8,63 43.3,64 43,64.5 41.2,63.7 40.7,64.7 42.6,65.5 42.4,66 40.5,65.2 40.1,66.3 
		41.9,67.1 41.7,67.6 	"/>
	<path class="st1" d="M45.2,68.6c-0.2,0-0.3,0-0.5-0.1c-1.1-0.3-1.8-1.3-1.5-2.4c0.2-1,1-1.6,1.9-1.6c0.2,0,0.3,0,0.5,0.1
		c0.6,0.1,1.1,0.5,1.3,1.1l0,0.1l-0.5,0.2l0-0.1c-0.2-0.4-0.5-0.6-0.9-0.7c-0.1,0-0.2,0-0.3,0c-0.7,0-1.2,0.5-1.4,1.2
		c-0.1,0.4,0,0.8,0.2,1.1c0.2,0.3,0.5,0.5,0.9,0.6c0.1,0,0.2,0,0.3,0c0.3,0,0.5-0.1,0.7-0.2l0.2-0.7l-1.3-0.3l0.1-0.5l1.9,0.4
		l-0.3,1.4l0,0C46.1,68.5,45.6,68.6,45.2,68.6"/>
	<path class="st1" d="M49.2,69.1c-1,0-1.6-0.7-1.6-1.7l0.1-2.4l0.6,0l-0.1,2.4c0,0.3,0.1,0.6,0.2,0.8c0.2,0.2,0.4,0.3,0.8,0.3l0,0
		c0.6,0,1-0.4,1-1.1l0.1-2.4l0.6,0l-0.1,2.4C50.9,68.5,50.3,69.1,49.2,69.1C49.3,69.1,49.3,69.1,49.2,69.1"/>
	<path class="st1" d="M52.6,66.8l0.9-0.1c0.4-0.1,0.7-0.4,0.6-0.8c-0.1-0.4-0.3-0.6-0.7-0.6c0,0-0.1,0-0.1,0l-0.9,0.1L52.6,66.8z
		 M51.7,65l1.6-0.2c0.1,0,0.2,0,0.2,0c0.6,0,1.1,0.4,1.2,1c0.1,0.7-0.3,1.1-0.8,1.3l1.3,1.4l-0.7,0.1l-1.2-1.4l-0.7,0.1l0.2,1.5
		L52.3,69L51.7,65z"/>
	<path class="st1" d="M56.6,66.7l1.4-0.5l-1.3-1.5L56.6,66.7z M56.2,64.1l0.6-0.2l2.7,3.3l-0.6,0.2l-0.6-0.7l-1.7,0.6l-0.1,0.9
		l-0.6,0.2L56.2,64.1z"/>
	<polygon class="st1" points="58.6,63.3 59.1,63 62.3,64.5 60.9,62 61.5,61.7 63.4,65.1 62.9,65.4 59.6,63.9 61,66.5 60.5,66.7 	"/>
	<path class="st1" d="M67.4,59.8l0.9-1.1l-1.9-0.6L67.4,59.8z M65.7,57.9l0.4-0.5l4,1.3l-0.4,0.5l-0.9-0.3l-1.2,1.4l0.4,0.8
		l-0.4,0.5L65.7,57.9z"/>
	<path class="st1" d="M70.1,54.7l0.4-0.9c0.2-0.4,0.1-0.7-0.3-0.9c-0.1,0-0.2-0.1-0.3-0.1c-0.3,0-0.5,0.2-0.6,0.4l-0.4,0.9
		L70.1,54.7z M68.2,54.4l0.7-1.4c0.2-0.5,0.6-0.7,1.1-0.7c0.2,0,0.4,0,0.6,0.1c0.6,0.3,0.9,1,0.6,1.7L70.6,55l1.4,0.7l-0.3,0.5
		L68.2,54.4z"/>
	<path class="st1" d="M72.2,47.2l0.1-1.1c0-0.2,0-0.3-0.1-0.5c-0.1-0.1-0.2-0.2-0.4-0.2c0,0,0,0-0.1,0c-0.3,0-0.5,0.2-0.5,0.5
		l-0.1,1.1L72.2,47.2z M74,47.3l0.1-1.1c0-0.4-0.2-0.7-0.5-0.7c0,0,0,0-0.1,0c-0.3,0-0.6,0.2-0.6,0.6l-0.1,1.1L74,47.3z M70.5,47.6
		l0.2-1.8c0.1-0.6,0.5-1,1-1c0,0,0.1,0,0.1,0c0.4,0,0.7,0.3,0.8,0.6c0.2-0.3,0.5-0.5,0.9-0.5c0,0,0.1,0,0.1,0c0.3,0,0.6,0.2,0.8,0.4
		c0.2,0.2,0.3,0.5,0.2,0.9L74.5,48L70.5,47.6z"/>
	<polygon class="st1" points="70.7,43.5 74.1,43.3 74,41.5 74.6,41.5 74.7,43.8 70.8,44.1 	"/>
	<rect x="70.4" y="40.2" transform="matrix(0.9864 -0.1646 0.1646 0.9864 -5.6864 12.4715)" class="st1" width="4" height="0.6"/>
	<path class="st1" d="M71.6,39.5c-0.9,0-1.6-0.6-1.9-1.5c-0.2-0.6-0.1-1.2,0.3-1.7l0-0.1l0.4,0.4l0,0c-0.2,0.3-0.3,0.7-0.2,1.1
		c0.2,0.6,0.7,1,1.3,1c0.2,0,0.3,0,0.5-0.1c0.8-0.2,1.3-1,1-1.8c-0.1-0.4-0.4-0.7-0.8-0.8l-0.1,0l0.1-0.6l0.1,0
		c0.6,0.2,1,0.6,1.2,1.2c0.2,0.5,0.1,1.1-0.1,1.5c-0.2,0.5-0.7,0.8-1.2,1C72,39.4,71.8,39.5,71.6,39.5"/>
	<path class="st1" d="M69.1,34.5l2-0.2L70.4,33L69.1,34.5z M68.3,34.5l2.8-3.2l0.3,0.6l-0.6,0.7l0.8,1.6l0.9-0.1l0.3,0.6l-4.2,0.4
		L68.3,34.5z"/>
	<path class="st1" d="M66.2,64.4l0.5-0.4l-0.3-0.9l-0.5,0.4L66.2,64.4z M65.8,63.3c-0.3,0.2-0.7,0.3-1.1,0.3c-0.6,0-1.1-0.3-1.6-0.8
		c-0.4-0.4-0.5-1-0.5-1.5c0.1-0.5,0.3-1,0.7-1.4c0.3-0.3,0.7-0.4,1.1-0.4c0.2,0,0.3,0,0.5,0.1l0.1,0L65,60.2l-0.1,0
		c-0.1,0-0.2,0-0.3,0c-0.3,0-0.6,0.1-0.8,0.3c-0.6,0.5-0.7,1.4-0.1,2.1c0.3,0.4,0.7,0.6,1.2,0.6c0.3,0,0.6-0.1,0.9-0.3
		c0.3-0.3,0.5-0.7,0.4-1.1l0-0.1l0.6-0.1l0,0.1C66.7,62.9,65.8,63.3,65.8,63.3"/>
	<path class="st1" d="M69.6,50.1l0.2-0.6L69.1,49l-0.2,0.6L69.6,50.1z M72.4,52.2c-0.2,0-0.4,0-0.6-0.1l-2.3-0.6l0.2-0.6l2.3,0.6
		c0.1,0,0.3,0.1,0.4,0.1c0.5,0,0.8-0.3,0.9-0.8c0.1-0.3,0.1-0.6-0.1-0.8c-0.1-0.2-0.4-0.4-0.7-0.5l-2.3-0.6l0.2-0.6l2.3,0.6
		c1,0.3,1.4,1,1.1,2C73.7,51.7,73.1,52.2,72.4,52.2"/>
	<path class="st1" d="M30.3,44l0-0.6l-0.7-0.3l0,0.6L30.3,44z M25.3,43.6l0-0.6l3.9,0.2l0,0.6L25.3,43.6z"/>
	<path class="st1" d="M48.2,31.8c0,3.8,1.5,4.6,1.8,4.7c1.7-0.9,1.7-4.1,1.7-4.7H48.2z M50,36.8L50,36.8c-0.1,0-2-0.7-2-5.1v-0.1H52
		l0,0.1C52,31.9,52.1,35.7,50,36.8L50,36.8z"/>
	<path class="st1" d="M50,32.9c-0.2,0-0.4,0.2-0.4,0.4c0,0.2,0.2,0.4,0.4,0.4c0.2,0,0.4-0.2,0.4-0.4C50.3,33.1,50.2,32.9,50,32.9
		 M50,33.8c-0.3,0-0.6-0.3-0.6-0.6c0-0.3,0.3-0.6,0.6-0.6c0.3,0,0.6,0.3,0.6,0.6C50.6,33.6,50.3,33.8,50,33.8"/>
	<path class="st1" d="M51,32.1c-0.2,0-0.4,0.2-0.4,0.4c0,0.2,0.2,0.4,0.4,0.4c0.2,0,0.4-0.2,0.4-0.4C51.4,32.3,51.2,32.1,51,32.1
		 M51,33c-0.3,0-0.6-0.3-0.6-0.6c0-0.3,0.3-0.6,0.6-0.6c0.3,0,0.6,0.3,0.6,0.6C51.6,32.8,51.3,33,51,33"/>
	<path class="st1" d="M49,32.1c-0.2,0-0.4,0.2-0.4,0.4c0,0.2,0.2,0.4,0.4,0.4c0.2,0,0.4-0.2,0.4-0.4C49.3,32.3,49.2,32.1,49,32.1
		 M49,33c-0.3,0-0.6-0.3-0.6-0.6c0-0.3,0.3-0.6,0.6-0.6c0.3,0,0.6,0.3,0.6,0.6C49.5,32.8,49.3,33,49,33"/>
	<path class="st1" d="M50.8,33.9c-0.2,0-0.4,0.2-0.4,0.4c0,0.2,0.2,0.4,0.4,0.4c0.2,0,0.4-0.2,0.4-0.4C51.1,34.1,51,33.9,50.8,33.9
		 M50.8,34.8c-0.3,0-0.6-0.3-0.6-0.6c0-0.3,0.3-0.6,0.6-0.6c0.3,0,0.6,0.3,0.6,0.6C51.3,34.6,51.1,34.8,50.8,34.8"/>
	<path class="st1" d="M49.2,33.9c-0.2,0-0.4,0.2-0.4,0.4c0,0.2,0.2,0.4,0.4,0.4c0.2,0,0.4-0.2,0.4-0.4
		C49.6,34.1,49.4,33.9,49.2,33.9 M49.2,34.8c-0.3,0-0.6-0.3-0.6-0.6c0-0.3,0.3-0.6,0.6-0.6c0.3,0,0.6,0.3,0.6,0.6
		C49.8,34.6,49.5,34.8,49.2,34.8"/>
	<path class="st1" d="M48.2,37.6c0,3.8,1.5,4.6,1.8,4.7c1.7-0.9,1.7-4.1,1.7-4.7H48.2z M50,42.6L50,42.6c-0.1,0-2-0.7-2-5.1v-0.1H52
		l0,0.1C52,37.7,52.1,41.5,50,42.6L50,42.6z"/>
	<path class="st1" d="M50,38.7c-0.2,0-0.4,0.2-0.4,0.4c0,0.2,0.2,0.4,0.4,0.4c0.2,0,0.4-0.2,0.4-0.4C50.3,38.9,50.2,38.7,50,38.7
		 M50,39.6c-0.3,0-0.6-0.3-0.6-0.6c0-0.3,0.3-0.6,0.6-0.6c0.3,0,0.6,0.3,0.6,0.6C50.6,39.4,50.3,39.6,50,39.6"/>
	<path class="st1" d="M51,37.9c-0.2,0-0.4,0.2-0.4,0.4c0,0.2,0.2,0.4,0.4,0.4c0.2,0,0.4-0.2,0.4-0.4C51.4,38.1,51.2,37.9,51,37.9
		 M51,38.8c-0.3,0-0.6-0.3-0.6-0.6c0-0.3,0.3-0.6,0.6-0.6c0.3,0,0.6,0.3,0.6,0.6C51.6,38.6,51.3,38.8,51,38.8"/>
	<path class="st1" d="M49,37.9c-0.2,0-0.4,0.2-0.4,0.4c0,0.2,0.2,0.4,0.4,0.4c0.2,0,0.4-0.2,0.4-0.4C49.3,38.1,49.2,37.9,49,37.9
		 M49,38.8c-0.3,0-0.6-0.3-0.6-0.6c0-0.3,0.3-0.6,0.6-0.6c0.3,0,0.6,0.3,0.6,0.6C49.5,38.6,49.3,38.8,49,38.8"/>
	<path class="st1" d="M50.8,39.7c-0.2,0-0.4,0.2-0.4,0.4c0,0.2,0.2,0.4,0.4,0.4c0.2,0,0.4-0.2,0.4-0.4C51.1,39.9,51,39.7,50.8,39.7
		 M50.8,40.6c-0.3,0-0.6-0.3-0.6-0.6c0-0.3,0.3-0.6,0.6-0.6c0.3,0,0.6,0.3,0.6,0.6C51.3,40.4,51.1,40.6,50.8,40.6"/>
	<path class="st1" d="M49.2,39.7c-0.2,0-0.4,0.2-0.4,0.4c0,0.2,0.2,0.4,0.4,0.4c0.2,0,0.4-0.2,0.4-0.4
		C49.6,39.9,49.4,39.7,49.2,39.7 M49.2,40.6c-0.3,0-0.6-0.3-0.6-0.6c0-0.3,0.3-0.6,0.6-0.6c0.3,0,0.6,0.3,0.6,0.6
		C49.8,40.4,49.5,40.6,49.2,40.6"/>
	<path class="st1" d="M52.7,37.6c0,3.8,1.5,4.6,1.8,4.7c1.7-0.9,1.7-4.1,1.7-4.7H52.7z M54.5,42.6L54.5,42.6c-0.1,0-2-0.7-2-5.1
		l0-0.1h3.9l0,0.1C56.4,37.7,56.5,41.5,54.5,42.6L54.5,42.6z"/>
	<path class="st1" d="M54.4,38.7c-0.2,0-0.4,0.2-0.4,0.4c0,0.2,0.2,0.4,0.4,0.4c0.2,0,0.4-0.2,0.4-0.4
		C54.8,38.9,54.6,38.7,54.4,38.7 M54.4,39.6c-0.3,0-0.6-0.3-0.6-0.6c0-0.3,0.3-0.6,0.6-0.6c0.3,0,0.6,0.3,0.6,0.6
		C55,39.4,54.7,39.6,54.4,39.6"/>
	<path class="st1" d="M55.5,37.9c-0.2,0-0.4,0.2-0.4,0.4c0,0.2,0.2,0.4,0.4,0.4c0.2,0,0.4-0.2,0.4-0.4
		C55.8,38.1,55.7,37.9,55.5,37.9 M55.5,38.8c-0.3,0-0.6-0.3-0.6-0.6c0-0.3,0.3-0.6,0.6-0.6c0.3,0,0.6,0.3,0.6,0.6
		C56,38.6,55.8,38.8,55.5,38.8"/>
	<path class="st1" d="M53.4,37.9c-0.2,0-0.4,0.2-0.4,0.4c0,0.2,0.2,0.4,0.4,0.4c0.2,0,0.4-0.2,0.4-0.4
		C53.7,38.1,53.6,37.9,53.4,37.9 M53.4,38.8c-0.3,0-0.6-0.3-0.6-0.6c0-0.3,0.3-0.6,0.6-0.6c0.3,0,0.6,0.3,0.6,0.6
		C54,38.6,53.7,38.8,53.4,38.8"/>
	<path class="st1" d="M55.2,39.7c-0.2,0-0.4,0.2-0.4,0.4c0,0.2,0.2,0.4,0.4,0.4c0.2,0,0.4-0.2,0.4-0.4
		C55.5,39.9,55.4,39.7,55.2,39.7 M55.2,40.6c-0.3,0-0.6-0.3-0.6-0.6c0-0.3,0.3-0.6,0.6-0.6c0.3,0,0.6,0.3,0.6,0.6
		C55.8,40.4,55.5,40.6,55.2,40.6"/>
	<path class="st1" d="M53.7,39.7c-0.2,0-0.4,0.2-0.4,0.4c0,0.2,0.2,0.4,0.4,0.4c0.2,0,0.4-0.2,0.4-0.4C54,39.9,53.9,39.7,53.7,39.7
		 M53.7,40.6c-0.3,0-0.6-0.3-0.6-0.6c0-0.3,0.3-0.6,0.6-0.6c0.3,0,0.6,0.3,0.6,0.6C54.2,40.4,54,40.6,53.7,40.6"/>
	<path class="st1" d="M43.8,37.6c0,3.8,1.5,4.6,1.8,4.7c1.7-0.9,1.7-4.1,1.7-4.7H43.8z M45.6,42.6L45.6,42.6c-0.1,0-2-0.7-2-5.1
		l0-0.1h3.9l0,0.1C47.5,37.7,47.7,41.5,45.6,42.6L45.6,42.6z"/>
	<path class="st1" d="M45.6,38.7c-0.2,0-0.4,0.2-0.4,0.4c0,0.2,0.2,0.4,0.4,0.4c0.2,0,0.4-0.2,0.4-0.4
		C45.9,38.9,45.8,38.7,45.6,38.7 M45.6,39.6c-0.3,0-0.6-0.3-0.6-0.6c0-0.3,0.3-0.6,0.6-0.6c0.3,0,0.6,0.3,0.6,0.6
		C46.1,39.4,45.9,39.6,45.6,39.6"/>
	<path class="st1" d="M46.6,37.9c-0.2,0-0.4,0.2-0.4,0.4c0,0.2,0.2,0.4,0.4,0.4c0.2,0,0.4-0.2,0.4-0.4C47,38.1,46.8,37.9,46.6,37.9
		 M46.6,38.8c-0.3,0-0.6-0.3-0.6-0.6c0-0.3,0.3-0.6,0.6-0.6c0.3,0,0.6,0.3,0.6,0.6C47.2,38.6,46.9,38.8,46.6,38.8"/>
	<path class="st1" d="M44.5,37.9c-0.2,0-0.4,0.2-0.4,0.4c0,0.2,0.2,0.4,0.4,0.4c0.2,0,0.4-0.2,0.4-0.4
		C44.9,38.1,44.7,37.9,44.5,37.9 M44.5,38.8c-0.3,0-0.6-0.3-0.6-0.6c0-0.3,0.3-0.6,0.6-0.6c0.3,0,0.6,0.3,0.6,0.6
		C45.1,38.6,44.9,38.8,44.5,38.8"/>
	<path class="st1" d="M46.3,39.7c-0.2,0-0.4,0.2-0.4,0.4c0,0.2,0.2,0.4,0.4,0.4c0.2,0,0.4-0.2,0.4-0.4
		C46.7,39.9,46.5,39.7,46.3,39.7 M46.3,40.6c-0.3,0-0.6-0.3-0.6-0.6c0-0.3,0.3-0.6,0.6-0.6c0.3,0,0.6,0.3,0.6,0.6
		C46.9,40.4,46.7,40.6,46.3,40.6"/>
	<path class="st1" d="M44.8,39.7c-0.2,0-0.4,0.2-0.4,0.4c0,0.2,0.2,0.4,0.4,0.4c0.2,0,0.4-0.2,0.4-0.4C45.2,39.9,45,39.7,44.8,39.7
		 M44.8,40.6c-0.3,0-0.6-0.3-0.6-0.6c0-0.3,0.3-0.6,0.6-0.6c0.3,0,0.6,0.3,0.6,0.6C45.4,40.4,45.1,40.6,44.8,40.6"/>
	<path class="st1" d="M48.2,43.4c0,3.8,1.5,4.6,1.8,4.7c1.7-0.9,1.7-4.1,1.7-4.7H48.2z M50,48.4L50,48.4c-0.1,0-2-0.7-2-5.1v-0.1H52
		l0,0.1C52,43.5,52.1,47.3,50,48.4L50,48.4z"/>
	<path class="st1" d="M50,44.5c-0.2,0-0.4,0.2-0.4,0.4c0,0.2,0.2,0.4,0.4,0.4c0.2,0,0.4-0.2,0.4-0.4C50.3,44.7,50.2,44.5,50,44.5
		 M50,45.4c-0.3,0-0.6-0.3-0.6-0.6c0-0.3,0.3-0.6,0.6-0.6c0.3,0,0.6,0.3,0.6,0.6C50.6,45.2,50.3,45.4,50,45.4"/>
	<path class="st1" d="M51,43.7c-0.2,0-0.4,0.2-0.4,0.4c0,0.2,0.2,0.4,0.4,0.4c0.2,0,0.4-0.2,0.4-0.4C51.4,43.9,51.2,43.7,51,43.7
		 M51,44.7c-0.3,0-0.6-0.3-0.6-0.6c0-0.3,0.3-0.6,0.6-0.6c0.3,0,0.6,0.3,0.6,0.6C51.6,44.4,51.3,44.7,51,44.7"/>
	<path class="st1" d="M49,43.7c-0.2,0-0.4,0.2-0.4,0.4c0,0.2,0.2,0.4,0.4,0.4c0.2,0,0.4-0.2,0.4-0.4C49.3,43.9,49.2,43.7,49,43.7
		 M49,44.7c-0.3,0-0.6-0.3-0.6-0.6c0-0.3,0.3-0.6,0.6-0.6c0.3,0,0.6,0.3,0.6,0.6C49.5,44.4,49.3,44.7,49,44.7"/>
	<path class="st1" d="M50.8,45.5c-0.2,0-0.4,0.2-0.4,0.4c0,0.2,0.2,0.4,0.4,0.4c0.2,0,0.4-0.2,0.4-0.4C51.1,45.7,51,45.5,50.8,45.5
		 M50.8,46.4c-0.3,0-0.6-0.3-0.6-0.6c0-0.3,0.3-0.6,0.6-0.6c0.3,0,0.6,0.3,0.6,0.6C51.3,46.2,51.1,46.4,50.8,46.4"/>
	<path class="st1" d="M49.2,45.5c-0.2,0-0.4,0.2-0.4,0.4c0,0.2,0.2,0.4,0.4,0.4c0.2,0,0.4-0.2,0.4-0.4
		C49.6,45.7,49.4,45.5,49.2,45.5 M49.2,46.4c-0.3,0-0.6-0.3-0.6-0.6c0-0.3,0.3-0.6,0.6-0.6c0.3,0,0.6,0.3,0.6,0.6
		C49.8,46.2,49.5,46.4,49.2,46.4"/>
</g>
</svg>
